<?xml version="1.0" encoding="utf-8"?>
<!-- Generator: Adobe Illustrator 16.0.0, SVG Export Plug-In . SVG Version: 6.00 Build 0)  -->
<!DOCTYPE svg PUBLIC "-//W3C//DTD SVG 1.1//EN" "http://www.w3.org/Graphics/SVG/1.1/DTD/svg11.dtd">
<svg
   xmlns:dc="http://purl.org/dc/elements/1.1/"
   xmlns:cc="http://creativecommons.org/ns#"
   xmlns:rdf="http://www.w3.org/1999/02/22-rdf-syntax-ns#"
   xmlns:svg="http://www.w3.org/2000/svg"
   xmlns="http://www.w3.org/2000/svg"
   xmlns:xlink="http://www.w3.org/1999/xlink"
   xmlns:sodipodi="../../../../../../sodipodi.sourceforge.net/DTD/sodipodi-0.html"
   xmlns:inkscape="http://www.inkscape.org/namespaces/inkscape"
   version="1.1"
   id="svg2"
   width="219"
   height="22"
   viewBox="0 0 219 22"
   sodipodi:docname="E.html"
   inkscape:version="0.92.4 (5da689c313, 2019-01-14)"
   preserveAspectRatio="none"
   >
<g enable-background="new    ">
	<path fill="#FFDA0F" d="M140.94,0.797l1.943,0.717c1.296-0.478,2.27-0.717,2.917-0.717c0.646,0.955,0.974,1.672,0.974,2.148
		l3.891-2.148h0.973c1.296,0.096,1.946,0.572,1.946,1.432c-1.137,0.479-2.431,0.717-3.892,0.717v0.717h1.945
		c0.646,0,0.974-0.238,0.974-0.717c5.673,0.479,9.239,1.195,10.698,2.149l2.919-1.433h9.726l2.917,1.433
		c0.161-0.954,0.812-1.433,1.946-1.433l2.918,1.433l2.919-1.433c0.646,0,0.971,0.239,0.971,0.715c0.647,0,0.975-0.236,0.975-0.715
		c5.509,0.955,12.644,1.433,21.398,1.433h8.754v1.288h-6.808c-0.65,0-0.974-0.189-0.974-0.572
		c-7.945,0.766-12.809,1.912-14.591,3.438h-21.398c-7.135,0-10.698,0.956-10.698,2.864c0.646,0,0.973,0.241,0.973,0.717h-2.919
		l0.973-3.581l-4.863,0.717l0.973,3.583h-2.917l0.973-3.583h-3.891c-4.54,0.955-7.783,1.433-9.727,1.433v0.715
		c6.48,0,9.727,0.48,9.727,1.436c-0.65,0-0.973,0.238-0.973,0.714l-1.946-0.714h-0.973c-1.299,0.093-1.944,0.57-1.944,1.43
		c-2.109,0-4.704-0.716-7.782-2.148c0,0.957-0.649,1.433-1.945,1.433c-0.65,0-1.621-0.239-2.917-0.714l-5.837,0.714l-3.892-0.714
		c-1.298,0.475-2.271,0.714-2.917,0.714c0-0.476-0.327-0.714-0.973-0.714l-1.945,2.146l4.862,0.718l1.946-0.718l5.837,0.718v1.288
		c0,0.956-0.974,1.434-2.919,1.434c-0.648,0-1.621-0.239-2.918-0.717l-5.835,0.717h-5.837l-2.918-1.434
		c0,0.956-0.649,1.434-1.945,1.434v-0.717l-1.945,0.717h-2.917l-1.946-0.717c0,0.955-0.649,1.432-1.945,1.432
		c0-0.954-0.649-1.432-1.945-1.432h-1.946L94.25,19.85c0-0.477-0.326-0.715-0.972-0.715c0,0.954-0.65,1.432-1.945,1.432H90.36
		c-0.65,0-0.973-0.235-0.973-0.717l-1.945,0.717h-1.945c-0.649,0-0.972-0.235-0.972-0.717l-1.945,0.717h-0.973
		c-1.3,0-1.946-0.717-1.946-2.148c-1.299,0-1.945,0.717-1.945,2.148h-6.809c-1.459,0-2.759,0.239-3.891,0.717l-1.945-0.717
		l-5.836,0.717h-0.973c-1.299,0-1.945-0.478-1.945-1.434c-1.786,0.861-5.999,1.576-12.645,2.15v-0.717L41.727,22h-4.863
		c-0.65,0-0.973-0.238-0.973-0.717L33.945,22H17.41c-4.54,0-6.808-1.864-6.808-5.587c-3.731,0-6-1.912-6.809-5.731
		c-0.973,0-1.945-0.716-2.918-2.148c0.973-3.246,2.269-4.871,3.891-4.871h14.59c0.646,0,0.973,0.239,0.973,0.715l1.946-0.715h10.699
		c6.809,0,17.182-0.238,31.126-0.717c0.159,0.956,0.809,1.432,1.945,1.432c0-0.953,8.104-1.432,24.317-1.432v0.717h5.836V2.229h3.89
		c1.296,0.098,1.946,0.574,1.946,1.434l1.945-0.717l2.918,1.432c0.159-0.953,0.809-1.432,1.945-1.432l2.918,1.432
		c0.159-0.953,0.81-1.432,1.945-1.432c0.646,0,0.973,0.239,0.973,0.717l1.945-0.717c0.646,0,0.973,0.239,0.973,0.717
		c0.322,0,1.618-0.238,3.891-0.717c1.458,0,5.023,0.239,10.7,0.717c0.322,0,1.617-0.238,3.891-0.717h2.917
		C138.993,1.514,139.639,0.797,140.94,0.797z M16.438,16.984c0.159,0.958,0.809,1.434,1.945,1.434h0.973v-1.434H16.438z
		 M64.099,15.695l-0.973,1.289v0.717h3.891l6.809-1.288v-0.718h-2.917c-1.459,0-2.759,0.241-3.891,0.718
		C65.716,15.937,64.744,15.695,64.099,15.695z M79.661,14.979l-0.972,1.435v0.571l6.808,0.717l0.973-1.288
		c2.591,0.857,4.537,1.288,5.836,1.288l0.973-1.288c-3.891-0.477-5.836-0.954-5.836-1.435l-1.945,0.717h-3.89L79.661,14.979z
		 M96.196,14.979l1.945,2.006c1.295-0.38,2.268-0.571,2.917-0.571v-0.718L96.196,14.979z M107.868,15.695
		c1.296,0.096,1.945,0.526,1.945,1.289l5.836-0.571v-1.435c-1.622,0-3.245-0.478-4.863-1.43
		C109.813,13.549,108.841,14.263,107.868,15.695z M109.813,12.113v0.717h1.945v-0.717H109.813z M124.402,12.113
		c0.646,0,0.973,0.241,0.973,0.717c1.297-0.476,2.271-0.717,2.92-0.717v-1.432h-1.946C125.048,10.778,124.402,11.254,124.402,12.113
		z M132.186,11.398v0.715h1.944v-0.715H132.186z M135.104,0.797h0.973v1.432h-0.973V0.797z M135.104,16.413h1.943
		c0,0.857-0.647,1.288-1.943,1.288V16.413z M136.076,10.682v1.432h1.944C138.021,11.16,137.37,10.682,136.076,10.682z
		 M141.911,16.413h1.946c0,0.857-1.946,1.529-5.837,2.005l-0.974-1.434L141.911,16.413z M139.966,11.398v0.715h2.918v-0.715H139.966
		z M144.83,16.413h2.918v0.571h-2.918V16.413z M148.721,16.413h4.863v1.288h-4.863V16.413z M155.529,0.797h0.973v1.432h-0.973V0.797
		z M166.229,11.398h0.972l1.946,0.715c1.131-0.477,2.433-0.715,3.891-0.715v0.715c0,0.958-0.65,1.436-1.946,1.436h-2.917
		c-1.301,0-1.945-0.478-1.945-1.436V11.398z M173.037,16.413h0.973v1.288h-0.973V16.413z M175.954,11.398l4.863,0.715
		c0-0.477,0.323-0.715,0.975-0.715v0.715c0,0.958-0.651,1.436-1.947,1.436c-0.65,0-0.974-0.239-0.974-0.719l-1.943,0.719h-0.974
		V11.398z M185.682,12.113h0.973v1.436h-0.973V12.113z M194.436,11.398h3.891v1.432h-3.891V11.398z"/>
</g>
</svg>
